<?xml version="1.0" encoding="UTF-8"?>
<svg width="97" height="97" version="1.1" viewBox="0 0 97 97" xml:space="preserve" xmlns="http://www.w3.org/2000/svg">
<desc>Created with Fabric.js 3.6.6</desc>

<g transform="translate(48.5,48.5)">
<path d="m47 0a47 47 0 0 1-47 47 47 47 0 0 1-47-47 47 47 0 0 1 47-47 47 47 0 0 1 47 47z" color="#000000" fill="#f4f4f4" style="-inkscape-stroke:none"/><path d="m0-48.5c-26.768 0-48.5 21.732-48.5 48.5s21.732 48.5 48.5 48.5 48.5-21.732 48.5-48.5-21.732-48.5-48.5-48.5zm0 3c25.147 0 45.5 20.353 45.5 45.5s-20.353 45.5-45.5 45.5-45.5-20.353-45.5-45.5 20.353-45.5 45.5-45.5z" color="#000000" fill="#d9772b" style="-inkscape-stroke:none"/>
</g>
<g transform="matrix(1,0,0,3.73,47.51,48.19)">
		<g style="white-space:pre" aria-label="F LS"><path d="m-7.9575-5.297q-0.22461 0-0.49805-0.087891-1.2598-0.41016-3.0762-0.41016-0.5957 0-1.377 0.078125-0.77148 0.078125-1.7188 0.23438 0.01953 1.875 0 3.2227 1.4844-0.36133 2.4609-0.36133 1.8164 0 3.1641 0.16602 1.2598 0.15625 1.2598 1.3281 0 0.56641-0.40039 0.94727-0.40039 0.38086-0.97656 0.38086-0.50781 0-1.5234-0.078125-1.0156-0.078125-1.5234-0.078125-0.71289 0-2.4609 0.44922v6.123q0 0.56641-0.44922 0.94727-0.43945 0.38086-1.0156 0.38086-0.56641 0-0.91797-0.38086-0.35156-0.37109-0.35156-0.94727v-11.191q0-0.38086 0.0098-1.1523 0.01953-0.77148 0.01953-1.1523 0-0.57617 0.38086-0.95703 0.39062-0.38086 0.97656-0.38086 0.37109 0 0.6543 0.14648 1.1328-0.19531 2.0801-0.2832 0.94727-0.097656 1.709-0.097656 1.1133 0 2.8027 0.45898 2.1191 0.57617 2.1191 1.3379 0 0.55664-0.40039 0.95703-0.39062 0.40039-0.94727 0.40039z" fill="#2c2c2c"/><path d="m-2.7393 5.8202 0.61523-2.7598q0.7998-3.6211 1.5645-8.499 0.070312-0.46582 0.47461-0.83496 0.4043-0.36914 0.94043-0.36914 0.46582 0 0.75586 0.28125 0.29004 0.28125 0.29004 0.72949 0 0.34277-0.44824 2.8125l-0.69434 3.7441q-0.24609 1.2744-0.97559 4.4209 2.0742-0.026367 5.502-1.0283 0.21973-0.052734 0.39551-0.052734 0.53613 0 0.78223 0.3252 0.24609 0.3252 0.24609 0.67676 0 0.7998-0.76465 1.2217-0.75586 0.41309-3.0322 0.81738-2.2676 0.41309-3.8145 0.41309-1.8721 0-1.8721-1.4414 0-0.21094 0.035156-0.45703zm10.178-0.94922q0-0.71191 0.43945-1.1602 0.43945-0.45703 1.0635-0.45703 0.76465 0 1.0459 0.80859 0.31641 1.0811 2.083 1.0811 1.4326 0 3.0938-0.65918 1.6699-0.66797 1.6699-1.8193 0-0.78223-0.62402-1.0723-0.61524-0.29883-2.6631-0.33398-1.5908-0.035156-2.7598-0.6416-1.1602-0.61523-1.1602-1.6436 0-1.7227 2.083-3.3311 2.083-1.6172 4.4648-1.6172 0.90527 0 2.1885 0.43945 1.2832 0.43066 1.2832 1.002 0 0.4043-0.41309 0.85254-0.41309 0.43945-1.002 0.43945-0.44824 0-1.2217-0.18457-0.7207-0.17578-1.2129-0.17578-1.1514 0-2.3203 0.58008-1.1602 0.57129-1.1602 1.2568 0 0.58008 1.1426 0.75586l2.0391 0.09668q1.2041 0.052734 2.1182 0.45703 0.91406 0.4043 1.3711 1.125 0.45703 0.71191 0.45703 1.6963 0 2.4521-2.3467 3.7705-2.3467 1.3096-5.4756 1.3096-2.0039 0-3.0937-0.75586-1.0898-0.76465-1.0898-1.8193z" fill="#004f8c"/></g>
</g>
</svg>
